#!OML:ASF H:\MichaelJackson\Top Level 1\Subject 1\Session 1\male.ASF
:FULLY-SPECIFIED
:DEGREES
1152
root -6.98854 16.5913 26.591 -173.773 170.894 182.752
lowerback 9.70268 -1.84557 -5.57893
upperback 2.04805 -2.96733 0.956332
thorax -2.96293 -1.43079 4.48718
lowerneck -3.84991 -7.03341 -3.11204
upperneck 0.994645 -9.27329 1.92384
head 1.19447 -4.62144 0.891873
rclavicle 5.89894e-014 -2.38542e-014
rhumerus -54.319 48.7162 -91.8427
rradius 102.356
rwrist -3.97522
rhand -13.9831 -17.9362
rfingers 7.12502
rthumb 12.1454 -1127.56
lclavicle 5.89894e-014 -2.38542e-014
lhumerus -41.6068 -26.4048 116.083
lradius 54.0964
lwrist 16.1863
lhand 25.126 33.0063
lfingers 7.12502
lthumb 49.2768 54.6006
rfemur -61.2832 -30.5664 15.1056
rtibia 54.3459
rfoot 20.064 -15.4815
rtoes 32.71
lfemur -26.7753 15.5581 -28.822
ltibia 45.1744
lfoot -20.0935 -23.4187
ltoes 37.7003
1153
root -6.98199 16.6479 26.5802 -174.046 172.251 182.668
lowerback 9.7574 -1.76835 -5.56035
upperback 2.07162 -2.86805 0.910588
thorax -2.98363 -1.38177 4.41996
lowerneck -4.04196 -6.73314 -2.87568
upperneck 1.2412 -8.87165 1.56441
head 1.26446 -4.42426 0.743469
rclavicle -3.598e-014 8.64713e-015
rhumerus -52.5668 51.2727 -87.8864
rradius 103.183
rwrist -3.88119
rhand -13.1888 -16.6157
rfingers 7.12502
rthumb 12.9112 -1126.2
lclavicle -3.598e-014 8.64713e-015
lhumerus -41.5826 -26.3144 115.906
lradius 54.0748
lwrist 16.889
lhand 25.5051 32.8698
lfingers 7.12502
lthumb 49.6245 54.2875
rfemur -58.9467 -26.3788 11.9508
rtibia 49.0333
rfoot 18.7967 -17.7886
rtoes 31.053
lfemur -25.752 14.0634 -28.6011
ltibia 43.8401
lfoot -20.3049 -20.2632
ltoes 36.3076
1154
root -6.97643 16.6994 26.5705 -174.352 173.589 182.483
lowerback 9.81592 -1.72054 -5.42974
upperback 2.09313 -2.79589 0.887369
thorax -3.0097 -1.34679 4.31623
lowerneck -4.2249 -6.41371 -2.60566
upperneck 1.51392 -8.44601 1.19177
head 1.34155 -4.21575 0.586692
rclavicle 3.06377e-014 -8.74653e-015
rhumerus -49.9845 53.6807 -83.112
rradius 103.738
rwrist -3.79142
rhand -11.9436 -14.8861
rfingers 7.12502
rthumb 14.1114 -1124.39
lclavicle 3.06377e-014 -8.74653e-015
lhumerus -41.6515 -26.3055 115.807
lradius 54.1752
lwrist 17.4398
lhand 25.7225 32.5913
lfingers 7.12502
lthumb 49.8237 53.9061
rfemur -56.5153 -21.3221 8.23139
rtibia 44.0604
rfoot 17.2917 -18.7514
rtoes 26.9071
lfemur -24.7658 12.4565 -28.291
ltibia 42.6405
lfoot -20.5648 -16.864
ltoes 34.521
1155
root -6.97193 16.746 26.5615 -174.684 174.914 182.193
lowerback 9.88562 -1.69625 -5.17529
upperback 2.11083 -2.74207 0.885804
thorax -3.04852 -1.32135 4.16787
lowerneck -4.39358 -6.07735 -2.30681
upperneck 1.79384 -7.99951 0.817655
head 1.42036 -3.99724 0.426197
rclavicle -1.54804e-014 1.2921e-015
rhumerus -46.506 55.8671 -77.4957
rradius 104.005
rwrist -3.93667
rhand -10.3871 -12.988
rfingers 7.12502
rthumb 15.6109 -1122.38
lclavicle -1.54804e-014 1.2921e-015
lhumerus -41.8032 -26.3706 115.779
lradius 54.3877
lwrist 17.8273
lhand 25.7711 32.2051
lfingers 7.12502
lthumb 49.8682 53.4968
rfemur -54.3838 -15.5601 4.18433
rtibia 39.7207
rfoot 15.4508 -19.2525
rtoes 23.5837
lfemur -23.8442 10.8591 -27.8963
ltibia 41.5988
lfoot -20.7826 -13.3683
ltoes 32.438
1156
root -6.96785 16.789 26.5528 -175.035 176.209 181.803
lowerback 9.97453 -1.70026 -4.79458
upperback 2.12731 -2.71264 0.904756
thorax -3.10128 -1.30855 3.97337
lowerneck -4.53922 -5.72424 -1.98545
upperneck 2.05964 -7.53241 0.448111
head 1.49361 -3.76869 0.265278
rclavicle -1.93318e-014 -6.06293e-015
rhumerus -42.0859 57.7674 -71.033
rradius 103.978
rwrist -4.4837
rhand -8.56799 -11.1902
rfingers 7.12502
rthumb 17.3622 -1120.43
lclavicle -1.93318e-014 -6.06293e-015
lhumerus -42.0107 -26.4861 115.809
lradius 54.6831
lwrist 18.0619
lhand 25.6597 31.7642
lfingers 7.12502
lthumb 49.7661 53.1089
rfemur -52.9431 -9.59101 0.182097
rtibia 36.2963
rfoot 13.3618 -19.6109
rtoes 22.9492
lfemur -22.9977 9.38195 -27.4272
ltibia 40.7248
lfoot -20.9002 -9.95373
ltoes 30.186
1157
root -6.96432 16.8269 26.5444 -175.412 177.464 181.33
lowerback 10.1058 -1.73384 -4.30075
upperback 2.14763 -2.71095 0.941223
thorax -3.17494 -1.30994 3.73839
lowerneck -4.67295 -5.35761 -1.64008
upperneck 2.30405 -7.04884 0.0788109
head 1.56108 -3.53205 0.101749
rclavicle 2.23633e-015 7.40473e-015
rhumerus -36.7761 59.3217 -63.8079
rradius 103.66
rwrist -5.45953
rhand -6.59957 -9.77836
rfingers 7.12502
rthumb 19.2559 -1118.85
lclavicle 2.23633e-015 7.40473e-015
lhumerus -42.2629 -26.6263 115.881
lradius 55.0477
lwrist 18.1803
lhand 25.3962 31.3401
lfingers 7.12502
lthumb 49.5246 52.8089
rfemur -52.4101 -4.1614 -3.28443
rtibia 34.0069
rfoot 11.2305 -19.4849
rtoes 25.0639
lfemur -22.2282 8.12665 -26.8907
ltibia 40.0392
lfoot -20.9047 -6.79384
ltoes 27.9453
1158
root -6.96156 16.8589 26.5363 -175.813 178.689 180.804
lowerback 10.286 -1.79067 -3.73622
upperback 2.17761 -2.73224 0.990523
thorax -3.26623 -1.32324 3.48174
lowerneck -4.77075 -4.9726 -1.2806
upperneck 2.49197 -6.54283 -0.277865
head 1.60838 -3.28401 -0.0577221
rclavicle -4.19311e-015 -4.96962e-017
rhumerus -30.6895 60.4701 -55.9559
rradius 103.058
rwrist -6.70252
rhand -4.55191 -8.95451
rfingers 7.12502
rthumb 21.2239 -1117.81
lclavicle -4.19311e-015 -4.96962e-017
lhumerus -42.5316 -26.7663 115.982
lradius 55.4446
lwrist 18.2299
lhand 25.0158 31.0095
lfingers 7.12502
lthumb 49.1757 52.6545
rfemur -52.7806 -0.0673058 -5.65868
rtibia 32.9794
rfoot 9.50826 -17.8933
rtoes 27.5867
lfemur -21.5403 7.17602 -26.3118
ltibia 39.5571
lfoot -20.8256 -4.02084
ltoes 25.8835
1159
root -6.96076 16.8829 26.5289 -176.236 179.891 180.255
lowerback 10.5209 -1.86719 -3.15076
upperback 2.2266 -2.77604 1.0507
thorax -3.36683 -1.34822 3.2296
lowerneck -4.84594 -4.56726 -0.913113
upperneck 2.61904 -6.01156 -0.614703
head 1.63705 -3.0229 -0.210438
rclavicle -9.0416e-015 -1.25421e-014
rhumerus -24.0183 61.1703 -47.6946
rradius 102.191
rwrist -7.92084
rhand -2.58236 -8.82738
rfingers 7.12502
rthumb 23.1147 -1117.46
lclavicle -9.0416e-015 -1.25421e-014
lhumerus -42.7822 -26.8746 116.084
lradius 55.8391
lwrist 18.2325
lhand 24.5849 30.7882
lfingers 7.12502
lthumb 48.7797 52.6289
rfemur -53.8417 2.24092 -6.51877
rtibia 33.2167
rfoot 8.48987 -14.2116
rtoes 28.8239
lfemur -20.9387 6.59575 -25.7057
ltibia 39.3019
lfoot -20.7335 -1.72291
ltoes 24.1187
1160
root -6.96354 16.897 26.5228 -176.685 181.081 179.722
lowerback 10.8064 -1.954 -2.60764
upperback 2.30094 -2.83617 1.11073
thorax -3.46625 -1.38158 3.00528
lowerneck -4.91235 -4.14576 -0.533757
upperneck 2.69737 -5.46103 -0.926135
head 1.65355 -2.75147 -0.356291
rclavicle -2.0978e-014 3.62782e-015
rhumerus -17.0797 61.3817 -39.3568
rradius 101.082
rwrist -8.63671
rhand -0.771901 -9.3703
rfingers 7.12502
rthumb 24.8508 -1117.78
lclavicle -2.0978e-014 3.62782e-015
lhumerus -43.0053 -26.9353 116.166
lradius 56.2068
lwrist 18.1871
lhand 24.1703 30.6338
lfingers 7.12502
lthumb 48.3984 52.6586
rfemur -55.3512 2.83381 -5.79226
rtibia 34.651
rfoot 8.20369 -8.62286
rtoes 28.3147
lfemur -20.4114 6.41203 -25.101
ltibia 39.2697
lfoot -20.6921 0.0803671
ltoes 22.6763
1161
root -6.97209 16.8996 26.5192 -177.147 182.277 179.245
lowerback 11.116 -2.04116 -2.17487
upperback 2.40342 -2.90702 1.15892
thorax -3.54461 -1.42026 2.83298
lowerneck -4.97705 -3.70974 -0.133514
upperneck 2.73433 -4.89443 -1.20325
head 1.66151 -2.47098 -0.494538
rclavicle 2.3059e-014 -5.96354e-015
rhumerus -10.2417 61.1111 -31.3323
rradius 99.7652
rwrist -8.36159
rhand 0.788273 -10.4603
rfingers 7.12502
rthumb 26.3452 -1118.65
lclavicle 2.3059e-014 -5.96354e-015
lhumerus -43.1922 -26.9437 116.204
lradius 56.5242
lwrist 18.0832
lhand 23.8169 30.4926
lfingers 7.12502
lthumb 48.0727 52.6714
rfemur -57.1856 2.17788 -3.77471
rtibia 37.1768
rfoot 8.62534 -1.9676
rtoes 26.1556
lfemur -19.9506 6.63864 -24.5268
ltibia 39.4349
lfoot -20.7443 1.40873
ltoes 21.516
1162
root -6.98693 16.8935 26.518 -177.617 183.461 178.871
lowerback 11.4227 -2.12708 -1.90572
upperback 2.53111 -2.99418 1.17504
thorax -3.58784 -1.46661 2.72119
lowerneck -5.0591 -3.27526 0.287974
upperneck 2.76353 -4.33355 -1.43347
head 1.6752 -2.1921 -0.622982
rclavicle 5.30631e-014 -1.51076e-014
rhumerus -3.86687 60.3912 -23.9965
rradius 98.279
rwrist -6.70022
rhand 2.20934 -11.9173
rfingers 7.12502
rthumb 27.7048 -1119.9
lclavicle 5.30631e-014 -1.51076e-014
lhumerus -43.3545 -26.9108 116.18
lradius 56.7815
lwrist 17.9079
lhand 23.533 30.2623
lfingers 7.12502
lthumb 47.8109 52.5629
rfemur -59.2602 0.818782 -0.950078
rtibia 40.683
rfoot 9.73064 4.61116
rtoes 22.8406
lfemur -19.5281 7.21749 -24.0288
ltibia 39.7272
lfoot -20.8833 2.33235
ltoes 20.5505
1163
root -7.00845 16.8817 26.519 -178.089 184.592 178.65
lowerback 11.7011 -2.21525 -1.84406
upperback 2.67639 -3.10968 1.13863
thorax -3.58772 -1.52628 2.67383
lowerneck -5.17616 -2.85264 0.739343
upperneck 2.8128 -3.79312 -1.61027
head 1.70616 -1.92199 -0.742069
rclavicle -6.74129e-014 1.2921e-014
rhumerus 1.74194 59.2815 -17.6565
rradius 96.6719
rwrist -3.41089
rhand 3.68624 -13.5764
rfingers 7.12502
rthumb 29.1161 -1121.32
lclavicle -6.74129e-014 1.2921e-014
lhumerus -43.5052 -26.8617 116.08
lradius 56.9831
lwrist 17.6625
lhand 23.307 29.8817
lfingers 7.12502
lthumb 47.6024 52.2779
rfemur -61.4924 -0.808418 2.18907
rtibia 45.0459
rfoot 11.3102 10.2503
rtoes 18.3738
lfemur -19.1157 8.07528 -23.6585
ltibia 40.0603
lfoot -21.0782 2.92031
ltoes 19.6416
1164
root -7.03615 16.8698 26.5214 -178.553 185.598 178.591
lowerback 11.9194 -2.3193 -1.97493
upperback 2.82407 -3.27127 1.03827
thorax -3.54242 -1.60826 2.67182
lowerneck -5.29655 -2.4563 1.21806
upperneck 2.88328 -3.29304 -1.72295
head 1.74852 -1.67011 -0.847622
rclavicle 2.93704e-014 -1.11319e-014
rhumerus 6.38125 57.8406 -12.5112
rradius 94.9913
rwrist 1.53167
rhand 5.6012 -15.1906
rfingers 7.12502
rthumb 30.9432 -1122.6
lclavicle 2.93704e-014 -1.11319e-014
lhumerus -43.6717 -26.8296 115.905
lradius 57.1416
lwrist 17.3796
lhand 23.1385 29.3761
lfingers 7.12502
lthumb 47.4468 51.843
rfemur -63.8045 -2.46001 5.29047
rtibia 50.1306
rfoot 12.9718 14.5438
rtoes 13.4949
lfemur -18.6862 9.10958 -23.4275
ltibia 40.3289
lfoot -21.265 3.23535
ltoes 18.6913
